<?xml version="1.0" encoding="utf-8"?>
<!-- Generator: Adobe Illustrator 27.5.0, SVG Export Plug-In . SVG Version: 6.00 Build 0)  -->
<svg version="1.1" xmlns="http://www.w3.org/2000/svg" xmlns:xlink="http://www.w3.org/1999/xlink" x="0px" y="0px"
	 viewBox="0 0 500 500.001" style="enable-background:new 0 0 500 500.001;" xml:space="preserve">
<g id="BACKGROUND">
	<rect width="500" height="500"/>
</g>
<g id="OBJECTS">
	<g>
		<path style="fill:#FFFFFF;" d="M257.703,438.081c-1.348-0.006-2.696-0.013-4.022-0.053l-5.757-0.281
			c-7.821-0.548-15.51-1.678-22.853-3.358c-15.918-3.643-30.347-9.821-42.886-18.366c-6.723-4.618-12.803-9.877-18.083-15.641
			c-5.481-5.926-10.149-12.671-13.859-20.033c-0.424-0.785-0.759-1.543-1.084-2.275l-0.273-0.613
			c-0.154-0.355-0.281-0.639-0.409-0.923c-0.289-0.642-0.587-1.305-0.864-2.036c-0.158-0.426-0.306-0.818-0.454-1.21
			c-0.562-1.489-1.143-3.028-1.608-4.684c-1.18-3.696-2.042-7.749-2.635-12.383l-0.304-3.134c-0.079-0.82-0.096-1.583-0.111-2.32
			c-0.007-0.311-0.013-0.622-0.026-0.932l-0.039-1.579c-0.009-0.185-0.011-0.72,0.003-1.085l0.02-0.731l0.045-0.894
			c0.02-0.369,0.042-0.72,0.068-1.01l0.004-0.05c0.043-0.532,0.086-1.066,0.145-1.577c0.457-4.287,1.22-8.12,1.976-11.62
			c1.708-7.722,3.783-14.916,5.587-20.938c1.864-6.173,3.967-12.708,6.432-19.991c9.778-28.72,20.482-55.904,28.716-76.379
			c10.532-26.063,20.585-49.762,30.738-72.458c5.023-11.17,10.477-23.119,16.343-34.861c1.292-2.57,2.846-5.615,4.604-8.789
			c0.819-1.467,1.711-3.039,2.896-4.863c0.323-0.493,0.671-1.003,1.085-1.569l0.207-0.276c0.179-0.238,0.349-0.464,0.618-0.788
			c0.236-0.291,0.662-0.799,1.295-1.436l0.116-0.117l0.124-0.107l0.143-0.137c0.777-0.748,1.79-1.64,3.981-2.748l0.293-0.148
			l0.311-0.1c2.226-0.721,4.21-1.07,6.07-1.07c3.795,0,7.063,1.457,9.993,4.455l0.088,0.093c1.048,1.14,1.707,2.135,2.021,2.651
			c0.313,0.498,0.464,0.777,0.631,1.089l0.194,0.358c0.68,1.316,1.071,2.268,1.418,3.108l0.088,0.214
			c0.383,0.943,0.695,1.786,1.006,2.633c0.662,1.821,1.226,3.513,1.644,4.784c0.885,2.701,1.759,5.503,2.835,9.09
			c3.154,10.594,6.266,21.736,9.797,35.072c2.717,10.244,5.517,21.022,8.807,33.918c5.746,22.617,11.048,44.345,15.922,64.458
			c5.262,22.02,9.844,41.45,14.012,59.415c4.038,17.613,8.298,36.267,12.117,53.798l1.358,6.404l0.341,1.699l0.181,0.962
			l0.108,0.625c0.255,1.018,0.407,2.291,0.113,4.127c-0.075,0.468-0.323,1.389-0.51,1.824c-3.412,7.967-9.544,9.205-13.337,9.205
			c-2.714,0-6.642-0.74-8.761-2.927c-0.977-1.008-3.393-5.194-3.393-5.194l-3.195-5.416l-3.062-5.078
			c-4.055-6.639-8.185-12.924-12.264-18.66c-8.056-11.37-16.426-21.425-24.879-29.889c-7.729-7.764-15.7-14.333-23.695-19.53
			c-6.468-4.214-13.159-7.633-19.891-10.162c-5.544-2.084-10.032-3.139-13.323-3.824c-2.998-0.583-4.638-0.81-4.654-0.812
			c-3.928-0.533-6.683-4.15-6.153-8.065c0.474-3.499,3.492-6.167,7.018-6.207l1.359-0.018l0.567-0.003
			c1.049,0,2.335,0.033,3.718,0.095c5.251,0.23,10.784,1.014,16.442,2.33c8.306,1.936,16.702,5.092,24.954,9.381
			c9.735,5.003,19.562,11.783,29.189,20.143c4.467,3.882,8.91,8.139,13.297,12.736c-0.097-0.393-0.193-0.786-0.292-1.18
			c-5.678-23.143-10.192-41.362-14.642-59.082c-5.061-20.408-10.494-41.984-16.154-64.141c-3.259-12.799-6.03-23.496-8.724-33.665
			l-0.791-2.966c-1.674-6.271-3.384-12.679-5.155-19.092c-3.283,6.871-6.398,13.63-9.162,19.677
			c-10.386,22.799-20.786,46.781-30.908,71.273c-12.252,29.747-21.138,52.795-28.812,74.729c-2.422,6.96-4.489,13.203-6.318,19.081
			c-2.39,7.73-4.006,13.575-5.24,18.947c-0.813,3.587-1.319,6.37-1.589,8.749c-0.036,0.287-0.055,0.514-0.075,0.739l-0.074,0.922
			l-0.022,0.668l0.028,1.196c0.01,0.244,0.013,0.563,0.015,0.881c0.002,0.366,0.004,0.713,0.03,0.974l0.189,2.147
			c0.385,3.107,0.894,5.596,1.6,7.828l0.034,0.107l0.028,0.109c0.214,0.828,0.539,1.713,0.883,2.648
			c0.154,0.419,0.308,0.84,0.456,1.261c0.111,0.306,0.267,0.646,0.418,0.988c0.123,0.274,0.245,0.549,0.36,0.826
			c0.085,0.191,0.167,0.383,0.248,0.573c0.181,0.423,0.352,0.823,0.519,1.129l0.052,0.093l0.046,0.097
			c4.748,9.8,12.803,18.861,23.295,26.204c9.842,6.831,21.336,11.843,34.15,14.884c6.052,1.439,12.42,2.432,18.932,2.946
			l4.946,0.281c0.893,0.034,1.848,0.047,2.801,0.061c0.647,0.009,1.292,0.017,1.94,0.033l1.105,0.021l5.895-0.146
			c0.065-0.006,2.712-0.196,2.712-0.196c6.489-0.459,12.877-1.441,18.993-2.924c7.026-1.684,13.146-3.563,18.719-5.743
			c0.345-0.131,0.647-0.241,0.949-0.353c0.463-0.17,0.925-0.338,1.382-0.522l2.271-0.958c0.543-0.235,1.126-0.477,1.709-0.719
			c0.978-0.405,1.902-0.789,2.79-1.207l5.657-2.665l3.297-1.727c2.219-1.108,4.291-2.31,6.483-3.582
			c0.75-0.435,1.499-0.87,2.253-1.3c0.811-0.48,1.667-1.027,2.573-1.608c0.528-0.338,1.058-0.676,1.59-1.009
			c1.412-0.888,2.748-1.728,4.012-2.639l4.194-2.912c0.825-0.604,1.639-1.224,2.451-1.845c0.506-0.386,1.012-0.771,1.521-1.153
			l2.009-1.524c0.366-0.28,0.737-0.592,1.108-0.902c0.246-0.207,0.493-0.413,0.742-0.616l3.831-3.173
			c4.451-3.946,9.605-8.66,14.166-13.737l0.103-0.108c1.73-1.795,3.331-3.699,5.026-5.716c0.482-0.574,0.965-1.147,1.45-1.718
			l0.056-0.064c0.637-0.719,1.245-1.524,1.891-2.378c0.347-0.46,0.695-0.919,1.05-1.372c0.368-0.487,0.742-0.971,1.117-1.454
			c0.649-0.837,1.263-1.629,1.826-2.43l3.384-4.881c0.278-0.396,0.556-0.793,0.822-1.197l3.942-6.322
			c0.511-0.874,1.001-1.76,1.489-2.645c0.302-0.546,0.604-1.092,0.91-1.635c1.287-2.193,2.372-4.412,3.521-6.762
			c0.324-0.663,0.648-1.326,0.977-1.987c0.582-1.119,1.061-2.242,1.567-3.432l2.342-5.449l2.57-6.951l0.389-1.063l2.087-6.748
			c0.143-0.456,0.286-0.911,0.417-1.371l1.84-7.308c0.186-0.68,0.329-1.405,0.455-2.089l1.424-7.289l0.675-4.835
			c0.072-0.567,0.162-1.188,0.253-1.807c0.149-1.024,0.29-1.991,0.372-2.912l0.412-4.86l0.253-2.889
			c0.018-0.206,0.039-0.411,0.05-0.625l0.292-9.513l-0.205-9.029c-0.009-0.451-0.05-0.894-0.087-1.337
			c-0.026-0.319-0.053-0.638-0.073-0.958l-0.561-7.244l-0.962-7.343c-0.123-1.151-0.348-2.335-0.585-3.588l-1.081-5.786
			c-4.972-24.188-16.027-47.697-31.956-67.912l-0.705-0.923l-5.272-6.263l-5.547-5.985l-5.801-5.705l-6.038-5.411l-2.673-2.184
			c-9.454-7.773-19.692-14.588-30.44-20.266c-10.685-5.572-21.85-10.021-33.168-13.215c-4.908-1.43-10.177-2.613-17.115-3.847
			c-0.836-0.145-1.711-0.259-2.639-0.381c-0.545-0.071-1.088-0.143-1.631-0.221c-0.469-0.058-1.02-0.136-1.57-0.214
			c-0.908-0.128-1.765-0.25-2.571-0.318l-4.313-0.366l-2.114-0.183c-0.409-0.026-0.834-0.037-1.258-0.049
			c-0.287-0.008-0.574-0.017-0.857-0.028c-2.323-0.091-4.688-0.138-7.03-0.138c-8.884,0-18.001,0.667-27.095,1.982
			c-10.926,1.647-21.705,4.336-32.015,7.988l-1.992,0.691c-0.313,0.115-0.689,0.267-1.066,0.417l-4.542,1.797
			c-1.561,0.635-3.116,1.336-4.762,2.079c-0.84,0.378-1.679,0.757-2.521,1.127l-3.556,1.777c-0.372,0.19-0.786,0.395-1.199,0.598
			c-0.777,0.383-1.51,0.744-2.17,1.129l-3.616,2.008l-1.671,0.934l-1.639,1.008c-8.819,5.33-17.089,11.491-24.607,18.331
			c-14.017,12.727-25.77,28.102-34.933,45.705c-4.036,7.729-7.67,16.076-10.803,24.81l-2.117,6.265
			c-0.395,1.237-0.774,2.538-1.153,3.833c-0.224,0.769-0.448,1.536-0.678,2.3c-0.094,0.332-0.211,0.721-0.328,1.11
			c-0.178,0.591-0.358,1.182-0.511,1.802l-1.998,7.896l-1.576,7.541c-0.238,1.188-0.431,2.415-0.634,3.712
			c-0.118,0.746-0.234,1.488-0.36,2.227l-0.467,2.882l-0.338,2.911c-0.075,0.697-0.162,1.427-0.248,2.154
			c-0.15,1.264-0.293,2.456-0.39,3.64c-0.614,7.081-0.8,14.374-0.568,22.313c0.334,7.087,1.008,13.978,2.001,20.407
			c0.157,1.033,0.342,2.045,0.525,3.049c0.108,0.595,0.216,1.186,0.318,1.777l0.412,2.304c0,0,0.741,3.405,0.862,3.972
			c0.207,0.964,0.412,1.919,0.636,2.862l1.124,4.408c1.624,6.049,3.272,11.314,5.025,16.04l0.031,0.086
			c0.621,1.791,1.324,3.561,2.005,5.273c0.257,0.648,0.513,1.289,0.762,1.927c0.275,0.682,0.582,1.391,0.886,2.093
			c0.18,0.418,0.674,1.574,0.674,1.574c0.423,0.99,0.823,1.925,1.244,2.809c3.396,7.456,7.101,14.44,11.044,20.822
			c2.723,4.435,5.449,8.465,8.107,11.988c0.997,1.334,1.746,2.269,2.224,2.857l0.826,0.995c2.519,3.035,2.099,7.558-0.94,10.079
			c-1.282,1.063-2.904,1.649-4.569,1.649c-2.095,0-4.077-0.911-5.439-2.501l-0.905-1.057c-0.92-1.1-1.772-2.161-2.64-3.285
			c-2.979-3.831-6.03-8.197-9.059-12.966c-4.364-6.837-8.475-14.311-12.215-22.211c-0.501-1.015-0.992-2.116-1.467-3.184
			c0,0-0.493-1.107-0.673-1.508c-0.356-0.792-0.716-1.594-1.061-2.413c-0.27-0.66-0.528-1.282-0.789-1.91
			c-0.77-1.855-1.566-3.773-2.306-5.806c-2.005-5.178-3.871-10.842-5.705-17.314l-1.259-4.686c-0.28-1.115-0.523-2.178-0.769-3.248
			c-0.128-0.555-0.984-4.283-0.984-4.283l-0.481-2.496c-0.111-0.593-0.223-1.166-0.335-1.742c-0.223-1.138-0.446-2.284-0.639-3.446
			c-1.171-6.985-2-14.457-2.463-22.198c-0.369-8.661-0.27-16.596,0.301-24.332c0.097-1.392,0.245-2.793,0.389-4.148
			c0.075-0.711,0.15-1.426,0.219-2.142l0.337-3.264l0.481-3.242c0.118-0.753,0.222-1.477,0.327-2.201
			c0.203-1.403,0.412-2.856,0.687-4.326l1.264-6.467l0.356-1.793l1.927-8.054c0.177-0.766,0.398-1.541,0.612-2.291
			c0.105-0.369,0.21-0.737,0.31-1.105c0.23-0.809,0.439-1.561,0.649-2.316c0.405-1.457,0.823-2.963,1.281-4.462l2.164-6.688
			c3.301-9.598,7.138-18.73,11.431-27.217c9.868-19.565,22.676-36.762,38.066-51.106c8.344-7.795,17.503-14.792,27.221-20.796
			l1.854-1.164l1.93-1.109l3.752-2.135c0.893-0.532,1.848-1.017,2.77-1.485c0.391-0.198,0.782-0.396,1.17-0.6l3.991-2.044
			l0.092-0.042c0.848-0.384,1.694-0.777,2.542-1.17c1.786-0.83,3.633-1.687,5.523-2.479l4.811-1.965
			c0.478-0.196,0.958-0.392,1.441-0.576l2.143-0.771c11.391-4.175,23.335-7.291,35.477-9.255
			c10.752-1.676,21.531-2.525,32.061-2.525c1.858,0,3.735,0.027,5.581,0.079c12.592,0.369,25.651,2.361,38.817,5.922
			c12.695,3.435,25.228,8.273,37.249,14.38c12.068,6.208,23.564,13.684,34.189,22.229l3.026,2.423l6.816,5.98l6.565,6.317
			l6.294,6.648l5.997,6.97l0.853,1.09c18.211,22.585,31.008,49.093,36.971,76.609l1.241,6.255c0.292,1.465,0.595,2.979,0.788,4.568
			l1.134,8.009l0.244,2.773l0.457,5.347c0.025,0.342,0.052,0.632,0.078,0.921c0.057,0.628,0.116,1.276,0.138,1.978l0.294,9.484
			c0.011,0.239,0.021,0.413,0.011,0.971l-0.219,9.728c-0.017,0.413-0.043,0.764-0.068,1.113l-0.24,3.205l-0.419,5.492
			c-0.108,1.325-0.276,2.565-0.441,3.764c-0.081,0.6-0.163,1.199-0.236,1.804l-0.73,5.53l-1.511,8.119
			c-0.15,0.848-0.349,1.893-0.628,2.955l-1.938,7.98c-0.167,0.607-0.349,1.21-0.531,1.813l-2.265,7.538l-0.488,1.382l-0.928,2.589
			l-1.9,5.253l-2.549,6.081c-0.592,1.421-1.206,2.889-1.949,4.355c-0.276,0.57-0.583,1.212-0.89,1.854
			c-1.281,2.677-2.607,5.443-4.147,8.133c-0.264,0.478-0.558,1.02-0.851,1.56c-0.592,1.091-1.185,2.182-1.803,3.257l-4.417,7.217
			c-0.347,0.536-0.706,1.064-1.066,1.591l-3.627,5.322c-0.751,1.084-1.514,2.089-2.251,3.06c-0.377,0.496-0.754,0.991-1.125,1.492
			l-0.052,0.068c-0.352,0.457-0.697,0.919-1.042,1.382c-0.771,1.034-1.567,2.103-2.477,3.153c-0.408,0.491-0.867,1.046-1.325,1.601
			c-1.875,2.27-3.814,4.616-5.916,6.847c-5.322,6.005-11.065,11.338-15.985,15.764c0,0-4.817,4.063-5.052,4.262
			c-0.496,0.422-0.993,0.841-1.505,1.242c0,0-3.208,2.478-3.7,2.859c-0.979,0.758-1.957,1.517-2.951,2.254l-4.588,3.247
			c-1.563,1.143-3.254,2.228-4.746,3.185c-0.541,0.345-1.067,0.688-1.594,1.029c-1.02,0.663-2.074,1.35-3.163,2.007
			c-0.775,0.454-1.499,0.881-2.221,1.309c-2.459,1.454-5.002,2.958-7.649,4.313l-3.676,1.962l-6.321,3.045
			c-1.175,0.564-2.347,1.063-3.481,1.545c-0.577,0.246-1.154,0.491-1.727,0.744l-2.585,1.111c-0.657,0.271-1.262,0.502-1.867,0.73
			l-0.867,0.33c-6.535,2.616-13.665,4.871-21.755,6.877c-7.366,1.844-15.065,3.094-22.875,3.713l-2.803,0.222
			c-0.358,0.034-0.828,0.055-1.073,0.061l-6.036,0.2C261.018,438.099,258.299,438.083,257.703,438.081z"/>
		<path style="fill:#6B6B6B;" d="M433.044,249.916l-0.041-1.343l-0.166-5.364l-0.085-2.678c-0.027-0.893-0.137-1.782-0.202-2.673
			l-0.456-5.336l-0.234-2.664l-0.374-2.648l-0.751-5.29c-0.212-1.768-0.592-3.508-0.933-5.252l-1.036-5.227
			c-6.023-27.794-18.936-53.528-36.171-74.905l-0.794-1.014l-0.839-0.977l-1.678-1.951l-3.351-3.891l-3.521-3.722l-1.758-1.856
			l-0.878-0.927l-0.919-0.885l-3.672-3.534l-1.834-1.763l-1.909-1.676c-1.272-1.116-2.542-2.231-3.811-3.344l-0.951-0.833
			l-0.987-0.791l-1.974-1.58c-10.494-8.439-21.733-15.724-33.457-21.755c-11.757-5.972-23.986-10.699-36.441-14.07
			c-12.463-3.37-25.102-5.404-37.838-5.777c-12.474-0.354-24.839,0.521-36.849,2.395c-12.006,1.94-23.651,5.001-34.723,9.059
			l-2.078,0.748c-0.688,0.261-1.364,0.55-2.045,0.824c-1.359,0.554-2.715,1.108-4.068,1.661c-2.696,1.131-5.317,2.406-7.956,3.603
			c-1.29,0.662-2.577,1.32-3.862,1.979c-1.277,0.671-2.582,1.282-3.817,2.018c-1.248,0.711-2.494,1.42-3.737,2.127l-1.857,1.067
			l-1.81,1.137c-9.686,5.984-18.576,12.833-26.563,20.294c-16.01,14.921-28.269,32.259-37.179,49.926
			c-4.471,8.84-8.141,17.77-11.182,26.612c-0.719,2.224-1.434,4.431-2.143,6.622c-0.675,2.21-1.265,4.447-1.892,6.644
			c-0.295,1.096-0.644,2.209-0.891,3.279c-0.257,1.074-0.513,2.143-0.768,3.209c-0.254,1.066-0.509,2.128-0.762,3.185l-0.379,1.583
			l-0.338,1.7c-0.422,2.162-0.842,4.307-1.257,6.433c-0.398,2.13-0.658,4.266-0.987,6.371c-0.156,1.054-0.312,2.104-0.466,3.15
			c-0.109,1.05-0.217,2.098-0.325,3.14c-0.199,2.085-0.457,4.147-0.6,6.2c-0.606,8.213-0.621,16.159-0.297,23.771
			c0.455,7.608,1.259,14.877,2.414,21.761c0.285,1.722,0.643,3.408,0.955,5.083c0.161,0.836,0.321,1.667,0.48,2.493
			c0.189,0.82,0.376,1.635,0.562,2.444c0.381,1.618,0.729,3.221,1.123,4.792c0.42,1.563,0.834,3.107,1.244,4.63
			c1.72,6.068,3.568,11.748,5.596,16.982c0.959,2.637,2.041,5.131,3.034,7.564c0.509,1.21,1.055,2.381,1.566,3.541
			c0.516,1.159,1.018,2.299,1.56,3.396c4.186,8.841,8.333,16.067,11.962,21.754c3.619,5.696,6.684,9.88,8.838,12.651
			c1.072,1.389,1.922,2.422,2.504,3.118c0.6,0.7,0.904,1.057,0.904,1.057c1.045,1.219,2.881,1.38,4.122,0.35
			c1.253-1.04,1.426-2.897,0.386-4.15l-0.063-0.077c0,0-0.266-0.32-0.79-0.951c-0.526-0.648-1.313-1.634-2.316-2.975
			c-2.014-2.672-4.911-6.75-8.327-12.311c-3.428-5.549-7.34-12.61-11.264-21.226c-0.509-1.068-0.977-2.179-1.46-3.307
			c-0.478-1.131-0.989-2.27-1.464-3.448c-0.924-2.366-1.936-4.791-2.823-7.353c-1.885-5.084-3.582-10.593-5.157-16.464
			c-0.375-1.473-0.756-2.965-1.141-4.477c-0.36-1.519-0.674-3.067-1.021-4.629c-0.17-0.781-0.34-1.567-0.512-2.359
			c-0.142-0.797-0.286-1.598-0.43-2.405c-0.279-1.614-0.603-3.241-0.855-4.899c-1.023-6.632-1.704-13.623-2.048-20.927
			c-0.213-7.308-0.101-14.922,0.581-22.783c0.163-1.965,0.438-3.939,0.653-5.934c0.116-0.997,0.232-1.998,0.349-3.004
			c0.162-0.999,0.325-2.004,0.488-3.012c0.344-2.014,0.615-4.057,1.024-6.092c0.425-2.034,0.854-4.083,1.286-6.149l0.308-1.478
			l0.399-1.577c0.267-1.054,0.535-2.111,0.804-3.174c0.269-1.062,0.538-2.128,0.809-3.199c0.264-1.078,0.599-2.077,0.896-3.125
			c0.624-2.074,1.203-4.168,1.874-6.269c0.709-2.097,1.423-4.21,2.143-6.337c3.032-8.454,6.658-16.956,11.032-25.334
			c8.719-16.748,20.56-33.007,35.835-46.875c7.623-6.934,16.071-13.265,25.235-18.803l1.712-1.052l1.759-0.984
			c1.176-0.652,2.354-1.306,3.536-1.962c1.167-0.682,2.404-1.24,3.611-1.859c1.214-0.606,2.431-1.214,3.65-1.823
			c2.497-1.096,4.973-2.271,7.521-3.308c1.279-0.506,2.561-1.014,3.846-1.521c0.644-0.25,1.282-0.518,1.932-0.756l1.965-0.682
			c10.463-3.706,21.466-6.475,32.818-8.187c11.364-1.643,23.049-2.351,34.893-1.884c0.754,0.029,1.534,0.037,2.269,0.084
			l2.151,0.187c1.436,0.122,2.874,0.244,4.314,0.366c1.44,0.122,2.922,0.378,4.385,0.56c1.466,0.211,2.94,0.37,4.405,0.624
			c5.855,1.04,11.728,2.252,17.523,3.939c11.61,3.276,23.028,7.828,33.991,13.545c10.933,5.776,21.398,12.723,31.136,20.728
			l1.832,1.496l0.917,0.749l0.882,0.79l3.53,3.167l1.77,1.584l1.694,1.668l3.396,3.338l0.85,0.835l0.81,0.875l1.621,1.751
			l3.25,3.505l3.082,3.663l1.544,1.834l0.773,0.916l0.729,0.955c15.833,20.093,27.501,44.018,32.788,69.747l0.903,4.84
			c0.299,1.615,0.637,3.224,0.811,4.862l0.642,4.898l0.323,2.45l0.191,2.468l0.382,4.941c0.054,0.824,0.151,1.646,0.169,2.474
			l0.055,2.483l0.113,4.972l0.028,1.243c0.004,0.125,0.016,0.599,0.011,0.439l-0.02,0.648l-0.08,2.587l-0.159,5.181l-0.039,1.296
			c-0.021,0.423-0.068,0.816-0.101,1.225l-0.212,2.435l-0.414,4.872c-0.143,1.627-0.438,3.289-0.648,4.933l-0.692,4.947
			l-0.959,4.904l-0.477,2.454c-0.151,0.819-0.315,1.637-0.537,2.441l-1.221,4.851l-0.61,2.428c-0.226,0.803-0.488,1.595-0.731,2.393
			l-1.479,4.786l-0.369,1.196l-0.431,1.178l-0.868,2.352l-1.741,4.704l-1.982,4.611c-0.664,1.537-1.291,3.091-2.066,4.578
			c-1.49,3.001-2.899,6.046-4.602,8.943c-0.823,1.461-1.614,2.942-2.463,4.392l-2.668,4.276l-1.334,2.141
			c-0.461,0.702-0.955,1.385-1.431,2.078l-2.876,4.149c-0.969,1.377-2.036,2.683-3.049,4.029c-1.043,1.324-2.008,2.709-3.127,3.974
			c-2.185,2.57-4.308,5.196-6.654,7.63c-4.517,5.027-9.494,9.631-14.558,14.12l-3.912,3.24c-0.657,0.534-1.294,1.093-1.966,1.608
			l-2.024,1.536c-1.354,1.018-2.69,2.061-4.058,3.061l-4.176,2.898c-1.375,0.991-2.81,1.894-4.245,2.796
			c-1.438,0.896-2.848,1.838-4.306,2.7c-2.942,1.68-5.839,3.443-8.87,4.955l-2.25,1.178l-1.124,0.59l-1.148,0.541l-4.59,2.162
			c-1.53,0.721-3.107,1.326-4.658,1.997l-2.335,0.983c-0.783,0.315-1.579,0.592-2.368,0.891c-6.286,2.46-12.758,4.354-19.262,5.914
			c-6.508,1.576-13.112,2.567-19.682,3.031l-2.463,0.178c-0.352,0.021-0.209,0.025-0.471,0.028l-0.663,0.017l-1.325,0.033
			l-2.65,0.065l-1.325,0.033l-1.22-0.023c-1.628-0.039-3.233-0.035-4.879-0.1l-4.992-0.283c-6.636-0.523-13.206-1.525-19.619-3.051
			c-12.815-3.042-25.042-8.208-35.593-15.531c-10.483-7.337-19.356-16.851-24.669-27.819c-0.368-0.67-0.638-1.375-0.945-2.065
			c-0.289-0.697-0.627-1.378-0.883-2.084c-0.496-1.415-1.071-2.809-1.442-4.249c-0.9-2.846-1.417-5.757-1.773-8.655l-0.192-2.179
			c-0.071-0.726-0.036-1.45-0.064-2.175l-0.023-1.087c-0.008-0.2-0.011-0.102,0.002-0.456l0.021-0.642l0.066-0.856
			c0.032-0.345,0.059-0.688,0.104-1.051c0.327-2.88,0.952-6.053,1.669-9.216c1.462-6.362,3.338-12.833,5.324-19.257
			c2.001-6.431,4.145-12.842,6.364-19.22c8.927-25.516,18.833-50.517,28.895-74.948c10.095-24.424,20.441-48.299,30.971-71.415
			c4.611-10.088,9.256-20.081,14.044-29.705c3.167,10.939,6.077,21.939,8.966,32.757c3.015,11.384,5.914,22.63,8.733,33.701
			c5.655,22.14,11.053,43.567,16.158,64.157c5.166,20.577,10.039,40.318,14.646,59.099c1.489,6.025,2.947,11.945,4.378,17.773
			c-7.959-9.658-16.112-18.082-24.234-25.141c-9.73-8.448-19.39-14.97-28.37-19.585c-8.964-4.659-17.189-7.436-23.965-9.016
			c-6.789-1.579-12.109-2.068-15.676-2.225c-1.786-0.08-3.137-0.099-4.043-0.088c-0.905,0.012-1.364,0.018-1.364,0.018
			c-1.442,0.017-2.693,1.088-2.893,2.56c-0.219,1.618,0.915,3.106,2.533,3.325l0.013,0.002c0,0,1.704,0.23,4.946,0.862
			c3.231,0.674,8.01,1.774,13.945,4.005c5.927,2.227,13.014,5.561,20.705,10.573c7.69,4.998,15.979,11.646,24.381,20.085
			c8.413,8.424,16.957,18.605,25.331,30.424c4.198,5.905,8.341,12.219,12.438,18.928c1.018,1.688,2.045,3.392,3.081,5.11
			c1.046,1.772,2.1,3.56,3.163,5.361l0.925,1.516c0.178,0.279,1.505,2.588,1.807,2.798c3.084,1.977,10.24,4.361,15.466-5.218
			c0.456-1.186-0.655-6.348-0.655-6.348c-0.447-2.109-0.898-4.237-1.354-6.381c-3.693-16.953-7.773-34.848-12.105-53.743
			c-4.379-18.874-9.061-38.697-14.002-59.375c-5.006-20.66-10.261-42.175-15.909-64.408c-2.836-11.115-5.755-22.412-8.798-33.882
			c-3.039-11.479-6.23-23.088-9.759-34.939c-0.89-2.966-1.807-5.947-2.802-8.985c-0.5-1.521-1.017-3.054-1.596-4.648
			c-0.296-0.804-0.591-1.603-0.946-2.479c-0.369-0.893-0.705-1.739-1.354-2.996c-0.225-0.404-0.319-0.615-0.669-1.169
			c-0.221-0.369-0.729-1.134-1.535-2.011c-3.165-3.239-6.561-4.002-11.753-2.321c-2.236,1.13-2.731,1.849-3.278,2.319
			c-0.48,0.483-0.8,0.86-1.042,1.158c-0.297,0.357-0.44,0.563-0.664,0.856c-0.368,0.504-0.677,0.957-0.955,1.38
			c-1.091,1.678-1.922,3.137-2.744,4.608c-1.618,2.92-3.081,5.768-4.521,8.631c-5.708,11.424-10.99,22.964-16.266,34.697
			c-10.494,23.46-20.686,47.59-30.674,72.311c-9.949,24.74-19.736,50.02-28.634,76.157c-2.214,6.542-4.362,13.146-6.387,19.851
			c-2.013,6.719-3.931,13.505-5.505,20.619c-0.773,3.577-1.481,7.201-1.908,11.205c-0.057,0.496-0.097,1.017-0.139,1.534
			c-0.022,0.243-0.04,0.538-0.057,0.842l-0.045,0.893l-0.017,0.655c-0.006,0.079-0.013,0.61-0.003,0.844l0.037,1.511
			c0.04,1.007,0.025,2.02,0.121,3.02l0.289,3.003c0.509,3.977,1.279,7.924,2.493,11.707c0.533,1.921,1.278,3.753,1.964,5.61
			c0.351,0.926,0.782,1.811,1.172,2.716c0.406,0.897,0.783,1.813,1.252,2.673c3.53,7.017,7.997,13.48,13.232,19.141
			c5.211,5.687,11.069,10.69,17.35,15.005c12.603,8.588,26.825,14.394,41.454,17.74c7.321,1.676,14.756,2.741,22.208,3.264
			l5.59,0.272c1.885,0.058,3.814,0.044,5.719,0.063l1.431,0.007l1.325-0.044l2.65-0.088l1.324-0.043l0.663-0.022
			c0.18-0.001,0.763-0.035,0.853-0.049l2.823-0.224c7.529-0.597,14.959-1.791,22.194-3.602c7.237-1.794,14.366-3.962,21.246-6.715
			c0.864-0.335,1.736-0.649,2.593-1.002l2.549-1.097c1.692-0.746,3.415-1.431,5.081-2.23l4.994-2.404l1.248-0.603l1.222-0.651
			l2.442-1.303c3.288-1.683,6.429-3.619,9.612-5.479c1.578-0.952,3.104-1.985,4.658-2.975c1.551-0.995,3.101-1.991,4.588-3.078
			l4.509-3.19c1.478-1.098,2.921-2.24,4.381-3.359l2.184-1.688c0.724-0.567,1.413-1.178,2.12-1.765l4.218-3.556
			c5.466-4.918,10.82-9.971,15.693-15.475c2.522-2.672,4.817-5.543,7.166-8.362c1.202-1.389,2.249-2.901,3.37-4.353
			c1.092-1.475,2.235-2.91,3.28-4.418l3.099-4.546c0.512-0.76,1.039-1.509,1.536-2.279l1.438-2.344l2.866-4.688
			c0.913-1.587,1.767-3.208,2.65-4.811c1.82-3.178,3.342-6.509,4.935-9.798c0.827-1.63,1.503-3.33,2.213-5.012l2.117-5.051
			l1.859-5.144l0.923-2.572l0.455-1.288l0.395-1.308l1.57-5.227c0.257-0.873,0.532-1.739,0.772-2.615l0.646-2.648l1.283-5.291
			c0.229-0.878,0.402-1.768,0.561-2.66l0.499-2.67l0.992-5.337l0.71-5.372c0.216-1.799,0.509-3.56,0.657-5.386l0.419-5.484
			l0.205-2.74c0.03-0.453,0.075-0.92,0.093-1.361l0.029-1.296l0.116-5.183l0.058-2.588l0.015-0.647
			C433.066,250.18,433.046,250.222,433.044,249.916z"/>
	</g>
</g>
</svg>
